# File created by Blade
# Date/Time:  Tue Apr 07 20:49:23 2015
# Frame Rate: 120.000 fps
#------------------------------------------------------
:FULLY-SPECIFIED
:DEGREES
287
root 4.756666 33.259494 -8.376963 -74.301227 75.217647 -105.489627
Spine -20.722442 -18.834871 18.904757
Head 2.483541 8.012215 14.123089
LeftShoulder -17.043455 47.714037 16.096871
LeftArm 49.875210 -4.228526 -87.054936
LeftForeArm 7.895412 -0.000000 30.980909
LeftHand 6.182176 -0.000000 11.787762
LeftHandThumb1 -26.253704 0.000000 33.147579
RightShoulder -16.058665 -16.381680 -9.970510
RightArm -13.492918 38.218990 71.417677
RightForeArm 68.061448 0.000000 4.663924
RightHand 12.703563 -0.000000 8.374039
RightHandThumb1 -24.326973 -0.000000 -32.862282
LeftUpLeg -35.197697 -3.592502 12.727814
LeftLeg 17.315059 -0.000000 -0.000000
LeftFoot -11.088520 7.823477 -14.689362
LeftToeBase -11.432081 -0.000000 0.000000
RightUpLeg -18.647985 15.923861 -21.245440
RightLeg 122.488687 -0.000000 -0.000000
RightFoot 47.271015 8.023290 2.608612
RightToeBase 21.467877 -0.000000 -0.000000
288
root 4.773324 33.271069 -8.379856 -74.410972 75.168533 -105.613421
Spine -20.685632 -18.916560 18.891936
Head 2.423566 8.039039 14.215176
LeftShoulder -17.004431 47.721010 16.190568
LeftArm 49.913334 -4.233534 -87.041448
LeftForeArm 7.822261 -0.000000 30.796753
LeftHand 6.161774 0.000000 12.031262
LeftHandThumb1 -26.253704 0.000000 33.147579
RightShoulder -16.142107 -16.293164 -9.884764
RightArm -13.542607 38.494994 71.294353
RightForeArm 68.415666 -0.000000 4.474705
RightHand 12.809687 0.000000 8.199616
RightHandThumb1 -24.326973 -0.000000 -32.862282
LeftUpLeg -35.318479 -3.399693 12.741699
LeftLeg 17.589867 -0.000000 -0.000000
LeftFoot -11.056282 7.308051 -15.311083
LeftToeBase -11.210264 -0.000000 0.000000
RightUpLeg -18.447665 15.949164 -21.212913
RightLeg 122.391069 -0.000000 -0.000000
RightFoot 47.452653 8.234048 2.692388
RightToeBase 20.920130 -0.000000 -0.000000
289
root 4.789886 33.281933 -8.381039 -74.417545 75.105447 -105.639374
Spine -20.657958 -18.953561 18.883198
Head 2.391328 8.009988 14.283554
LeftShoulder -16.875367 47.707996 16.352349
LeftArm 49.873916 -4.247020 -86.997136
LeftForeArm 7.812098 -0.000000 30.668044
LeftHand 6.219931 -0.000000 11.956173
LeftHandThumb1 -26.253704 0.000000 33.147579
RightShoulder -16.211794 -16.140318 -9.823373
RightArm -13.712867 38.676288 71.095338
RightForeArm 68.561213 -0.000000 4.292395
RightHand 12.808946 -0.000000 8.364063
RightHandThumb1 -24.326973 -0.000000 -32.862282
LeftUpLeg -35.423552 -3.263321 12.801265
LeftLeg 17.826525 -0.000000 -0.000000
LeftFoot -11.071998 6.916551 -15.904248
LeftToeBase -10.904769 -0.000000 0.000000
RightUpLeg -18.266632 15.993865 -21.170195
RightLeg 122.296728 -0.000000 -0.000000
RightFoot 47.626881 8.430516 2.786881
RightToeBase 20.622176 -0.000000 -0.000000
290
root 4.809175 33.292647 -8.377456 -74.486177 75.012356 -105.738409
Spine -20.662377 -19.015906 18.906899
Head 2.400798 8.004132 14.383672
LeftShoulder -16.821003 47.772653 16.464434
LeftArm 49.930825 -4.244644 -86.947181
LeftForeArm 7.789778 -0.000000 30.489129
LeftHand 6.249821 -0.000000 11.941671
LeftHandThumb1 -26.253704 0.000000 33.147579
RightShoulder -16.297059 -16.056993 -9.726450
RightArm -13.792139 38.885619 70.915977
RightForeArm 68.621656 0.000000 4.116231
RightHand 12.768223 -0.000000 8.557600
RightHandThumb1 -24.326973 -0.000000 -32.862282
LeftUpLeg -35.514687 -3.171033 12.904330
LeftLeg 18.009442 -0.000000 -0.000000
LeftFoot -11.069261 6.656335 -16.348140
LeftToeBase -10.751147 -0.000000 0.000000
RightUpLeg -18.076783 16.035843 -21.061229
RightLeg 122.219304 -0.000000 -0.000000
RightFoot 47.701148 8.629414 2.784631
RightToeBase 20.358026 -0.000000 -0.000000
291
root 4.827099 33.302349 -8.375111 -74.301344 74.920045 -105.576858
Spine -20.652826 -19.022215 18.915276
Head 2.435455 8.019546 14.472792
LeftShoulder -16.774243 47.803686 16.572760
LeftArm 49.951361 -4.224818 -86.867958
LeftForeArm 7.786533 -0.000000 30.302587
LeftHand 6.377920 0.000000 11.858341
LeftHandThumb1 -26.253704 0.000000 33.147579
RightShoulder -16.377704 -15.984261 -9.639209
RightArm -13.893109 39.100578 70.729788
RightForeArm 68.528516 -0.000000 4.021200
RightHand 12.673502 -0.000000 8.799836
RightHandThumb1 -24.326973 -0.000000 -32.862282
LeftUpLeg -35.572604 -3.056320 12.987482
LeftLeg 18.157126 -0.000000 -0.000000
LeftFoot -11.050119 6.512455 -16.639781
LeftToeBase -10.718369 -0.000000 0.000000
RightUpLeg -17.927820 16.133797 -20.994440
RightLeg 122.150686 -0.000000 -0.000000
RightFoot 47.780755 8.826797 2.760530
RightToeBase 19.392297 -0.000000 -0.000000
292
root 4.844479 33.312075 -8.368261 -74.078456 74.798453 -105.399162
Spine -20.667554 -19.011266 18.949668
Head 2.477648 8.007823 14.548142
LeftShoulder -16.679372 47.786784 16.737426
LeftArm 49.896077 -4.219297 -86.816037
LeftForeArm 7.681327 -0.000000 30.142187
LeftHand 6.367165 -0.000000 11.964795
LeftHandThumb1 -26.253704 0.000000 33.147579
RightShoulder -16.458735 -15.945729 -9.540005
RightArm -13.926220 39.203552 70.589542
RightForeArm 68.500357 -0.000000 3.905402
RightHand 12.616409 -0.000000 9.059977
RightHandThumb1 -24.326973 -0.000000 -32.862282
LeftUpLeg -35.641422 -2.923221 13.095633
LeftLeg 18.289415 -0.000000 -0.000000
LeftFoot -11.044519 6.427657 -16.843319
LeftToeBase -10.728081 -0.000000 0.000000
RightUpLeg -17.814103 16.212249 -20.898282
RightLeg 122.129427 -0.000000 -0.000000
RightFoot 47.811322 9.156570 2.500780
RightToeBase 18.137599 -0.000000 -0.000000
293
root 4.864748 33.319142 -8.365055 -73.635186 74.703944 -104.969756
Spine -20.658785 -18.964368 18.945187
Head 2.561356 8.048680 14.584005
LeftShoulder -16.672737 47.858612 16.796779
LeftArm 49.939288 -4.219851 -86.746563
LeftForeArm 7.606010 -0.000000 29.981772
LeftHand 6.389763 -0.000000 11.968513
LeftHandThumb1 -26.253704 0.000000 33.147579
RightShoulder -16.514110 -15.894207 -9.451375
RightArm -14.017628 39.338700 70.405637
RightForeArm 68.694221 0.000000 3.843667
RightHand 12.634128 -0.000000 9.403074
RightHandThumb1 -24.326973 -0.000000 -32.862282
LeftUpLeg -35.634118 -2.777720 13.157665
LeftLeg 18.360860 -0.000000 -0.000000
LeftFoot -11.051284 6.406184 -16.976134
LeftToeBase -10.744643 -0.000000 0.000000
RightUpLeg -17.695831 16.334625 -20.863074
RightLeg 122.102007 -0.000000 -0.000000
RightFoot 47.749764 9.265915 2.473338
RightToeBase 17.394167 -0.000000 -0.000000
294
root 4.884499 33.326065 -8.360355 -73.195633 74.576121 -104.565745
Spine -20.689662 -18.927938 18.995199
Head 2.687716 8.080312 14.629753
LeftShoulder -16.625399 47.884423 16.897152
LeftArm 49.897052 -4.254347 -86.714383
LeftForeArm 7.619375 -0.000000 29.827022
LeftHand 6.382260 -0.000000 11.942541
LeftHandThumb1 -26.253704 0.000000 33.147579
RightShoulder -16.550088 -15.839059 -9.380938
RightArm -14.129432 39.513024 70.201210
RightForeArm 68.966626 0.000000 3.836734
RightHand 12.652955 -0.000000 9.756354
RightHandThumb1 -24.326973 -0.000000 -32.862282
LeftUpLeg -35.644057 -2.586555 13.237912
LeftLeg 18.426174 -0.000000 -0.000000
LeftFoot -11.058500 6.354064 -17.077037
LeftToeBase -10.727620 -0.000000 0.000000
RightUpLeg -17.604149 16.419916 -20.796433
RightLeg 122.079606 -0.000000 -0.000000
RightFoot 47.703577 9.344288 2.375987
RightToeBase 16.793497 -0.000000 -0.000000
295
root 4.904528 33.332388 -8.354459 -72.802548 74.467922 -104.242432
Spine -20.769948 -18.898063 19.043468
Head 2.830147 8.163985 14.636485
LeftShoulder -16.591540 47.915287 16.968691
LeftArm 49.847126 -4.303918 -86.675070
LeftForeArm 7.524309 -0.000000 29.709270
LeftHand 6.374399 -0.000000 11.940757
LeftHandThumb1 -26.253704 0.000000 33.147579
RightShoulder -16.594819 -15.784231 -9.291115
RightArm -14.262190 39.661093 69.956928
RightForeArm 69.258878 -0.000000 3.840810
RightHand 12.761765 -0.000000 9.891970
RightHandThumb1 -24.326973 -0.000000 -32.862282
LeftUpLeg -35.700791 -2.377834 13.290094
LeftLeg 18.510387 -0.000000 -0.000000
LeftFoot -11.062610 6.278935 -17.180512
LeftToeBase -10.788306 -0.000000 0.000000
RightUpLeg -17.513424 16.448597 -20.744391
RightLeg 122.070200 -0.000000 -0.000000
RightFoot 47.615407 9.410397 2.189627
RightToeBase 15.638633 -0.000000 -0.000000
296
root 4.921786 33.336522 -8.352040 -72.229230 74.410632 -103.752621
Spine -20.866535 -18.830480 19.034415
Head 2.970673 8.193412 14.634563
LeftShoulder -16.585531 47.974559 17.003848
LeftArm 49.854485 -4.351825 -86.612579
LeftForeArm 7.402052 -0.000000 29.557716
LeftHand 6.460459 -0.000000 11.890154
LeftHandThumb1 -26.253704 0.000000 33.147579
RightShoulder -16.672620 -15.803287 -9.201961
RightArm -14.303580 39.859627 69.782582
RightForeArm 69.485219 -0.000000 3.896760
RightHand 12.985925 -0.000000 9.921340
RightHandThumb1 -24.326973 -0.000000 -32.862282
LeftUpLeg -35.771377 -2.161516 13.291336
LeftLeg 18.602007 -0.000000 -0.000000
LeftFoot -11.097770 6.158238 -17.381173
LeftToeBase -10.752674 -0.000000 0.000000
RightUpLeg -17.461957 16.448096 -20.790720
RightLeg 122.079910 -0.000000 -0.000000
RightFoot 47.523086 9.523168 1.809079
RightToeBase 14.693983 -0.000000 -0.000000
